<mxfile host="app.diagrams.net" modified="2024-06-15T23:58:26.015Z" agent="Mozilla/5.0 (Windows NT 10.0; Win64; x64) AppleWebKit/537.36 (KHTML, like Gecko) Chrome/125.0.0.0 Safari/537.36" etag="jav-KuqQvGfpbh4yVcFq" version="24.5.4" type="device">
  <diagram name="Page-1" id="aLyJkQmWUuZekNQ0N301">
    <mxGraphModel dx="1105" dy="586" grid="1" gridSize="10" guides="1" tooltips="1" connect="1" arrows="1" fold="1" page="1" pageScale="1" pageWidth="850" pageHeight="1100" math="0" shadow="0">
      <root>
        <mxCell id="0" />
        <mxCell id="1" parent="0" />
        <mxCell id="n71o2QJlBDOBtxRwqCm_-16" style="edgeStyle=orthogonalEdgeStyle;rounded=0;orthogonalLoop=1;jettySize=auto;html=1;exitX=1;exitY=0.5;exitDx=0;exitDy=0;exitPerimeter=0;entryX=0;entryY=0.5;entryDx=0;entryDy=0;" edge="1" parent="1" source="n71o2QJlBDOBtxRwqCm_-1" target="n71o2QJlBDOBtxRwqCm_-15">
          <mxGeometry relative="1" as="geometry" />
        </mxCell>
        <mxCell id="n71o2QJlBDOBtxRwqCm_-1" value="Start" style="strokeWidth=2;html=1;shape=mxgraph.flowchart.start_1;whiteSpace=wrap;" vertex="1" parent="1">
          <mxGeometry x="220" y="50" width="100" height="60" as="geometry" />
        </mxCell>
        <mxCell id="n71o2QJlBDOBtxRwqCm_-30" style="edgeStyle=orthogonalEdgeStyle;rounded=0;orthogonalLoop=1;jettySize=auto;html=1;exitX=0.5;exitY=1;exitDx=0;exitDy=0;" edge="1" parent="1" source="n71o2QJlBDOBtxRwqCm_-15" target="n71o2QJlBDOBtxRwqCm_-28">
          <mxGeometry relative="1" as="geometry" />
        </mxCell>
        <mxCell id="n71o2QJlBDOBtxRwqCm_-15" value="INPUT" style="rounded=0;whiteSpace=wrap;html=1;" vertex="1" parent="1">
          <mxGeometry x="380" y="50" width="120" height="60" as="geometry" />
        </mxCell>
        <mxCell id="n71o2QJlBDOBtxRwqCm_-22" style="edgeStyle=orthogonalEdgeStyle;rounded=0;orthogonalLoop=1;jettySize=auto;html=1;exitX=0.5;exitY=1;exitDx=0;exitDy=0;entryX=0.5;entryY=0;entryDx=0;entryDy=0;" edge="1" parent="1" source="n71o2QJlBDOBtxRwqCm_-19" target="n71o2QJlBDOBtxRwqCm_-21">
          <mxGeometry relative="1" as="geometry" />
        </mxCell>
        <mxCell id="n71o2QJlBDOBtxRwqCm_-19" value="Add chat" style="rounded=0;whiteSpace=wrap;html=1;" vertex="1" parent="1">
          <mxGeometry x="380" y="240" width="120" height="60" as="geometry" />
        </mxCell>
        <mxCell id="n71o2QJlBDOBtxRwqCm_-27" style="edgeStyle=orthogonalEdgeStyle;rounded=0;orthogonalLoop=1;jettySize=auto;html=1;exitX=0.5;exitY=1;exitDx=0;exitDy=0;" edge="1" parent="1" source="n71o2QJlBDOBtxRwqCm_-21" target="n71o2QJlBDOBtxRwqCm_-26">
          <mxGeometry relative="1" as="geometry" />
        </mxCell>
        <mxCell id="n71o2QJlBDOBtxRwqCm_-37" style="edgeStyle=orthogonalEdgeStyle;rounded=0;orthogonalLoop=1;jettySize=auto;html=1;exitX=1;exitY=0.5;exitDx=0;exitDy=0;entryX=0;entryY=0.5;entryDx=0;entryDy=0;" edge="1" parent="1" source="n71o2QJlBDOBtxRwqCm_-21" target="n71o2QJlBDOBtxRwqCm_-23">
          <mxGeometry relative="1" as="geometry" />
        </mxCell>
        <mxCell id="n71o2QJlBDOBtxRwqCm_-21" value="Text input" style="rounded=0;whiteSpace=wrap;html=1;" vertex="1" parent="1">
          <mxGeometry x="380" y="330" width="120" height="60" as="geometry" />
        </mxCell>
        <mxCell id="n71o2QJlBDOBtxRwqCm_-23" value="compare&lt;br&gt;Prompt dan&lt;br&gt;replies" style="rhombus;whiteSpace=wrap;html=1;" vertex="1" parent="1">
          <mxGeometry x="570" y="310" width="100" height="100" as="geometry" />
        </mxCell>
        <mxCell id="n71o2QJlBDOBtxRwqCm_-39" style="edgeStyle=orthogonalEdgeStyle;rounded=0;orthogonalLoop=1;jettySize=auto;html=1;exitX=0.5;exitY=1;exitDx=0;exitDy=0;" edge="1" parent="1" source="n71o2QJlBDOBtxRwqCm_-26" target="n71o2QJlBDOBtxRwqCm_-36">
          <mxGeometry relative="1" as="geometry" />
        </mxCell>
        <mxCell id="n71o2QJlBDOBtxRwqCm_-26" value="Find replies" style="rounded=1;whiteSpace=wrap;html=1;" vertex="1" parent="1">
          <mxGeometry x="380" y="420" width="120" height="60" as="geometry" />
        </mxCell>
        <mxCell id="n71o2QJlBDOBtxRwqCm_-32" style="edgeStyle=orthogonalEdgeStyle;rounded=0;orthogonalLoop=1;jettySize=auto;html=1;exitX=0.5;exitY=1;exitDx=0;exitDy=0;" edge="1" parent="1" source="n71o2QJlBDOBtxRwqCm_-28" target="n71o2QJlBDOBtxRwqCm_-19">
          <mxGeometry relative="1" as="geometry" />
        </mxCell>
        <mxCell id="n71o2QJlBDOBtxRwqCm_-28" value="Validasi" style="rounded=1;whiteSpace=wrap;html=1;" vertex="1" parent="1">
          <mxGeometry x="380" y="140" width="120" height="60" as="geometry" />
        </mxCell>
        <mxCell id="n71o2QJlBDOBtxRwqCm_-40" style="edgeStyle=orthogonalEdgeStyle;rounded=0;orthogonalLoop=1;jettySize=auto;html=1;exitX=0;exitY=0.5;exitDx=0;exitDy=0;entryX=1;entryY=0.5;entryDx=0;entryDy=0;" edge="1" parent="1" source="n71o2QJlBDOBtxRwqCm_-33" target="n71o2QJlBDOBtxRwqCm_-36">
          <mxGeometry relative="1" as="geometry" />
        </mxCell>
        <mxCell id="n71o2QJlBDOBtxRwqCm_-33" value="Additional Responses" style="rounded=1;whiteSpace=wrap;html=1;" vertex="1" parent="1">
          <mxGeometry x="550" y="520" width="120" height="60" as="geometry" />
        </mxCell>
        <mxCell id="n71o2QJlBDOBtxRwqCm_-43" style="edgeStyle=orthogonalEdgeStyle;rounded=0;orthogonalLoop=1;jettySize=auto;html=1;exitX=0.5;exitY=1;exitDx=0;exitDy=0;" edge="1" parent="1" source="n71o2QJlBDOBtxRwqCm_-36" target="n71o2QJlBDOBtxRwqCm_-42">
          <mxGeometry relative="1" as="geometry" />
        </mxCell>
        <mxCell id="n71o2QJlBDOBtxRwqCm_-36" value="Bot message" style="rounded=0;whiteSpace=wrap;html=1;" vertex="1" parent="1">
          <mxGeometry x="380" y="520" width="120" height="60" as="geometry" />
        </mxCell>
        <mxCell id="n71o2QJlBDOBtxRwqCm_-38" style="edgeStyle=orthogonalEdgeStyle;rounded=0;orthogonalLoop=1;jettySize=auto;html=1;exitX=0.5;exitY=1;exitDx=0;exitDy=0;entryX=0.586;entryY=0.038;entryDx=0;entryDy=0;entryPerimeter=0;" edge="1" parent="1" source="n71o2QJlBDOBtxRwqCm_-23" target="n71o2QJlBDOBtxRwqCm_-33">
          <mxGeometry relative="1" as="geometry" />
        </mxCell>
        <mxCell id="n71o2QJlBDOBtxRwqCm_-42" value="End" style="strokeWidth=2;html=1;shape=mxgraph.flowchart.start_1;whiteSpace=wrap;" vertex="1" parent="1">
          <mxGeometry x="390" y="610" width="100" height="60" as="geometry" />
        </mxCell>
      </root>
    </mxGraphModel>
  </diagram>
</mxfile>
